<?xml version="1.0" standalone="no"?>
<!DOCTYPE svg PUBLIC "-//W3C//DTD SVG 20010904//EN"
 "http://www.w3.org/TR/2001/REC-SVG-20010904/DTD/svg10.dtd">
<svg version="1.0" xmlns="http://www.w3.org/2000/svg"
 width="512.000000pt" height="512.000000pt" viewBox="0 0 512.000000 512.000000"
 preserveAspectRatio="xMidYMid meet">
<metadata>
Created by potrace 1.11, written by Peter Selinger 2001-2013
</metadata>
<g transform="translate(0.000000,512.000000) scale(0.100000,-0.100000)"
fill="#000000" stroke="none">
<path d="M1545 3326 c-102 -24 -271 -96 -295 -126 -3 -4 -39 -30 -82 -59 -132
-90 -244 -228 -267 -332 -8 -37 -7 -45 9 -59 11 -10 16 -20 13 -24 -4 -4 0 -4
9 -1 29 11 58 -64 60 -155 1 -76 66 -208 127 -259 47 -39 156 -101 178 -101 7
0 29 -9 50 -19 65 -33 318 -36 466 -6 42 8 123 47 217 103 47 28 102 61 124
74 110 66 207 203 224 318 12 86 -23 253 -57 274 -6 4 -9 11 -6 16 3 4 -2 13
-10 20 -8 7 -15 19 -15 28 0 13 18 14 133 9 126 -7 340 -34 457 -59 30 -6 60
-12 65 -14 20 -4 162 -37 238 -56 43 -10 104 -28 135 -40 l56 -21 -24 -16
c-13 -9 -62 -31 -109 -49 -93 -36 -131 -52 -293 -132 -60 -28 -108 -56 -108
-61 0 -5 -3 -8 -7 -7 -7 2 -54 -23 -138 -75 -11 -7 -27 -20 -37 -31 -9 -10
-34 -27 -54 -38 -51 -27 -179 -153 -211 -208 -39 -66 -33 -94 34 -162 87 -88
106 -91 331 -48 175 33 349 31 509 -6 124 -28 304 -96 343 -129 25 -21 190
-73 265 -83 75 -10 167 -1 191 19 8 6 14 8 14 3 0 -4 34 27 75 70 73 76 89
108 65 132 -5 5 -11 18 -13 29 -6 35 -41 84 -67 95 -48 19 -89 1 -130 -58 -19
-26 -39 -51 -44 -55 -19 -14 -84 2 -174 44 -48 22 -89 40 -92 41 -8 1 -46 16
-122 48 -40 17 -75 32 -78 32 -3 0 -9 2 -15 3 -57 16 -136 35 -159 39 -16 3
-52 10 -80 15 -114 23 -174 29 -313 32 -40 0 -73 4 -73 8 0 18 94 86 200 146
52 30 162 81 255 120 109 45 154 64 185 75 96 34 205 88 223 109 29 34 52 116
48 172 -2 36 -132 129 -198 143 -19 3 -35 9 -93 34 -37 16 -46 18 -98 20 -18
1 -31 5 -29 10 3 4 -11 8 -31 10 -19 1 -41 7 -49 14 -7 6 -16 8 -20 5 -3 -4
-15 -1 -27 5 -29 15 -90 20 -120 8 -20 -7 -24 -6 -20 5 4 10 -6 16 -33 21 -21
5 -42 7 -47 6 -4 -2 -14 3 -22 9 -8 6 -14 9 -14 7 0 -3 -23 -1 -52 3 -38 6
-54 5 -60 -4 -5 -8 -8 -6 -8 6 0 10 -4 16 -9 13 -4 -3 -22 -1 -39 4 -20 5 -34
5 -38 -1 -4 -6 -11 -6 -20 2 -8 6 -36 12 -62 14 -27 1 -54 5 -60 9 -7 4 -16 4
-22 1 -5 -3 -10 -1 -10 6 0 8 -4 8 -16 -2 -9 -7 -18 -9 -22 -3 -7 10 -12 10
-107 19 -33 3 -78 7 -100 10 -22 2 -103 7 -180 11 -77 3 -145 11 -152 16 -7 5
-14 5 -17 -1 -4 -7 -15 -7 -31 -1 -66 25 -336 35 -420 16z m805 -129 c0 -5 9
-2 19 7 16 15 23 15 41 6 13 -7 25 -8 29 -4 12 17 30 14 24 -4 -4 -13 -3 -13
10 3 16 20 16 20 42 -6 17 -17 24 -31 19 -43 -6 -15 -8 -15 -23 -2 -16 15 -23
16 -88 18 -26 1 -33 5 -34 22 -1 16 -2 17 -6 4 -5 -19 -33 -33 -33 -17 0 7 -9
9 -21 6 -12 -3 -18 -3 -15 0 3 4 -1 15 -11 25 -15 17 -15 18 15 7 18 -6 32
-16 32 -22z m-77 14 c-4 -3 -10 -10 -14 -14 -3 -4 -11 -2 -17 5 -8 10 -5 13
15 14 13 1 21 -1 16 -5z m301 -8 c4 -9 14 -11 31 -7 15 4 25 2 25 -5 0 -16 26
-13 44 5 10 10 16 11 16 3 0 -8 11 -10 34 -6 28 4 34 3 29 -9 -4 -12 0 -13 21
-4 17 6 26 6 26 -1 0 -6 7 -6 20 1 14 8 20 8 20 0 0 -7 8 -9 19 -5 13 4 23 0
29 -11 6 -10 16 -15 26 -11 9 4 16 2 16 -4 0 -6 9 -1 21 12 11 13 18 18 14 12
-3 -7 -1 -13 4 -13 6 0 11 -7 11 -15 0 -8 7 -15 15 -15 8 0 15 4 15 9 0 5 7
12 16 15 14 5 15 4 5 -8 -9 -11 -9 -14 1 -13 37 1 59 -4 53 -13 -9 -14 8 -12
24 3 8 6 11 7 8 1 -7 -13 65 -40 81 -30 5 3 16 -2 23 -11 11 -13 11 -17 1 -20
-6 -3 -9 -10 -5 -16 4 -7 0 -8 -11 -4 -10 4 -22 7 -28 7 -6 0 -6 6 2 15 8 9 8
15 2 15 -6 0 -14 -9 -17 -20 -4 -11 -11 -17 -17 -14 -6 4 -5 10 3 16 10 7 8 8
-8 5 -14 -3 -23 0 -23 6 0 8 -3 7 -9 -1 -6 -11 -16 -9 -46 8 -28 15 -40 18
-45 10 -5 -7 -16 -9 -29 -5 -12 3 -18 11 -15 17 4 7 2 8 -5 4 -6 -4 -9 -12 -6
-17 4 -5 1 -9 -4 -9 -6 0 -11 7 -11 16 0 8 -4 12 -10 9 -5 -3 -10 -1 -10 4 0
6 -4 11 -10 11 -5 0 -9 -3 -9 -7 5 -29 -2 -36 -16 -16 -13 19 -20 20 -47 12
-41 -11 -38 -12 -38 6 0 18 -20 20 -20 3 0 -7 -10 -2 -21 12 -11 14 -18 20
-15 13 10 -19 -11 -25 -51 -14 -23 7 -39 7 -43 1 -3 -5 -14 0 -24 12 -15 17
-20 18 -27 7 -7 -12 -9 -12 -9 0 0 9 -7 11 -22 8 -18 -5 -26 0 -35 20 -7 14
-11 29 -8 33 7 12 34 7 39 -7z m-180 -78 c-4 -8 -8 -15 -10 -15 -2 0 -4 7 -4
15 0 8 4 15 10 15 5 0 7 -7 4 -15z m760 0 c3 -8 1 -15 -3 -15 -5 0 -11 7 -15
15 -3 8 -1 15 3 15 5 0 11 -7 15 -15z m-657 -17 c-3 -8 -6 -5 -6 6 -1 11 2 17
5 13 3 -3 4 -12 1 -19z m73 1 c0 -11 -27 -12 -34 0 -3 4 -3 11 0 14 8 8 34 -3
34 -14z m40 1 c9 -6 17 -5 22 3 5 8 8 7 8 -5 0 -9 -4 -19 -10 -23 -10 -6 -50
15 -50 27 0 11 12 10 30 -2z m101 -21 c7 -13 7 -19 1 -15 -6 3 -14 1 -18 -6
-5 -8 -10 -6 -14 8 -4 10 -2 22 4 26 15 10 14 11 27 -13z m69 -10 c0 -11 -3
-11 -24 -3 -23 9 -20 23 4 17 11 -3 20 -9 20 -14z m64 -12 c10 10 16 13 12 6
-5 -9 8 -11 49 -9 37 3 53 0 48 -7 -4 -6 0 -8 9 -4 24 9 50 -14 38 -33 -9 -13
-12 -13 -25 4 -8 10 -21 16 -29 13 -8 -3 -34 0 -59 8 -33 10 -48 10 -56 2 -15
-15 -47 15 -36 33 6 9 11 7 19 -9 11 -20 13 -20 30 -4z m429 -8 c7 -27 -6 -24
-19 5 -9 19 -9 23 1 19 7 -2 15 -13 18 -24z m-500 -20 c-8 -8 -13 -7 -18 2 -5
8 -4 10 3 5 7 -4 12 -2 12 5 0 7 3 9 7 6 4 -4 2 -12 -4 -18z m304 -15 c2 -6
-3 -11 -12 -11 -8 0 -15 4 -15 8 0 4 -8 10 -17 13 -10 2 -5 4 11 3 16 -1 31
-7 33 -13z m-1312 -12 c17 -11 55 -27 85 -37 243 -80 341 -214 265 -364 -33
-66 -72 -102 -152 -143 -101 -51 -187 -76 -293 -84 -52 -4 -104 -8 -115 -9
-11 -1 -33 3 -50 8 -16 5 -41 11 -55 12 -103 10 -134 19 -168 49 -81 72 -106
204 -56 304 53 107 223 223 385 262 95 24 117 24 154 2z m1393 -9 c-10 -2 -18
-9 -18 -15 0 -6 -3 -9 -6 -5 -10 10 6 27 24 26 15 -1 15 -2 0 -6z m97 -353 c3
-5 1 -10 -4 -10 -6 0 -11 5 -11 10 0 6 2 10 4 10 3 0 8 -4 11 -10z m-69 -26
c-11 -7 -22 -11 -25 -8 -3 3 3 12 13 20 11 7 22 11 25 8 3 -3 -3 -12 -13 -20z
m-112 -70 c3 -8 2 -12 -4 -9 -6 3 -10 1 -10 -4 0 -6 -3 -10 -7 -9 -19 5 -52
-23 -47 -40 3 -9 -2 -4 -11 11 -16 28 -39 29 -28 2 7 -21 -24 -19 -35 1 -8 14
-10 14 -25 -1 -10 -9 -17 -12 -17 -7 0 15 28 34 39 28 5 -4 15 0 23 7 23 23
48 28 48 9 0 -13 2 -14 9 -4 4 7 12 12 17 11 5 -1 16 -1 24 0 13 1 13 2 0 11
-13 8 -13 10 1 10 9 0 20 -7 23 -16z m-165 -70 c5 4 14 -2 20 -11 6 -10 11
-13 11 -8 0 6 12 11 26 11 23 2 24 1 7 -10 -10 -7 -33 -18 -50 -25 -18 -8 -33
-21 -33 -30 0 -12 -2 -13 -8 -3 -12 18 -45 3 -38 -17 4 -9 -3 -5 -15 8 -11 14
-28 30 -37 37 -15 12 -14 13 6 9 13 -2 35 3 48 12 27 17 32 12 10 -10 -13 -13
-12 -14 10 -14 20 0 22 2 13 13 -9 11 -8 14 2 14 9 1 8 4 -4 11 -9 6 -15 15
-11 20 4 6 11 6 19 -1 8 -7 19 -9 24 -6z m-174 -94 c-6 -10 -45 -20 -45 -11 0
4 5 12 11 18 12 12 42 6 34 -7z m22 -42 c2 -17 0 -19 -7 -8 -5 8 -6 18 -4 22
8 12 10 10 11 -14z m38 12 c3 -5 2 -10 -4 -10 -5 0 -13 5 -16 10 -3 6 -2 10 4
10 5 0 13 -4 16 -10z m-75 -10 c0 -5 -5 -10 -11 -10 -5 0 -7 5 -4 10 3 6 8 10
11 10 2 0 4 -4 4 -10z m284 -146 c5 -14 4 -15 -9 -4 -17 14 -19 20 -6 20 5 0
12 -7 15 -16z m110 0 c3 -9 -5 -11 -27 -7 -18 2 -38 5 -44 5 -7 1 -13 5 -13 9
0 12 79 6 84 -7z m46 2 c0 -3 -4 -8 -10 -11 -5 -3 -10 -1 -10 4 0 6 5 11 10
11 6 0 10 -2 10 -4z m30 -6 c0 -5 -5 -10 -11 -10 -5 0 -7 5 -4 10 3 6 8 10 11
10 2 0 4 -4 4 -10z m100 -31 c0 -5 -4 -9 -10 -9 -5 0 -10 7 -10 16 0 8 5 12
10 9 6 -3 10 -10 10 -16z m-344 -4 c23 0 40 4 36 9 -3 6 3 6 14 2 10 -5 51
-10 89 -12 39 -2 70 -4 70 -4 0 -2 22 -6 65 -13 14 -2 34 -8 45 -14 11 -6 41
-14 68 -17 26 -4 47 -12 47 -17 0 -6 5 -7 11 -3 10 6 30 -1 82 -28 10 -5 22
-6 27 -3 5 3 11 1 15 -5 7 -11 68 -39 99 -45 10 -3 48 -18 85 -35 50 -24 62
-33 51 -40 -10 -7 -16 -5 -18 5 -2 8 -10 11 -18 8 -8 -3 -21 0 -29 7 -8 6 -19
9 -24 6 -5 -4 -12 -2 -16 3 -3 5 -14 8 -25 6 -13 -2 -18 0 -14 7 4 7 -1 8 -16
3 -15 -5 -20 -4 -16 4 7 11 -5 15 -31 12 -7 -1 -13 3 -13 9 0 6 -4 8 -10 5 -5
-3 -10 -2 -10 3 0 5 -13 7 -30 4 -19 -3 -30 0 -30 7 0 7 -4 9 -10 6 -5 -3 -10
2 -10 12 0 10 -4 14 -8 8 -9 -12 -32 -18 -31 -8 4 22 -2 25 -15 8 -12 -17 -16
-17 -31 -5 -16 13 -16 15 2 21 15 7 16 8 1 8 -9 1 -29 -4 -44 -9 -21 -9 -31
-7 -47 7 -15 13 -21 15 -24 6 -7 -19 -23 -16 -23 5 0 14 -2 15 -10 2 -7 -12
-10 -12 -10 -1 0 7 -6 11 -15 7 -8 -3 -19 2 -24 12 -6 9 -11 12 -11 6 0 -20
-68 -27 -86 -9 -15 14 -19 14 -40 1 -16 -11 -25 -12 -30 -5 -3 6 -15 9 -25 6
-11 -3 -17 -1 -13 4 3 5 -5 10 -18 11 -36 2 -42 3 -63 15 -11 5 -26 8 -32 6
-7 -3 -13 0 -13 5 0 6 12 9 26 7 15 -1 28 3 31 11 3 8 10 11 17 7 6 -4 30 -7
52 -8z m420 -7 c4 4 2 -1 -5 -10 -7 -10 -16 -18 -19 -18 -3 0 -2 3 1 6 3 4 2
16 -4 28 -9 19 -9 19 4 4 8 -10 18 -14 23 -10z m57 -21 c4 3 7 1 7 -5 0 -20
-19 -13 -30 11 -10 20 -10 20 3 5 8 -10 17 -15 20 -11z m-603 -9 c10 -6 4 -7
-17 -3 -21 4 -33 3 -33 -4 0 -6 -4 -11 -9 -11 -5 0 -7 9 -4 20 6 21 27 20 63
-2z m691 -14 c9 -11 5 -12 -18 -5 -15 4 -33 6 -39 4 -6 -2 -11 2 -11 10 0 17
52 10 68 -9z m-641 12 c0 -11 -19 -15 -25 -6 -3 5 1 10 9 10 9 0 16 -2 16 -4z
m745 -56 c3 -6 -1 -7 -9 -4 -18 7 -21 14 -7 14 6 0 13 -4 16 -10z m195 -140
c12 -8 13 -11 2 -22 -11 -11 -13 -10 -10 2 2 8 -3 14 -9 13 -7 -2 -13 2 -13 7
0 12 11 13 30 0z m40 -10 c0 -5 -4 -10 -10 -10 -5 0 -10 5 -10 10 0 6 5 10 10
10 6 0 10 -4 10 -10z m149 5 c-3 -2 -22 -11 -43 -20 -28 -12 -36 -13 -31 -3 3
7 -1 4 -9 -6 -9 -11 -16 -14 -16 -7 0 7 -3 10 -7 8 -5 -3 -14 2 -22 10 -12 13
-8 15 38 12 28 -2 51 -1 51 4 0 4 10 7 22 7 12 0 19 -2 17 -5z"/>
<path d="M2910 3050 c8 -5 20 -10 25 -10 6 0 3 5 -5 10 -8 5 -19 10 -25 10 -5
0 -3 -5 5 -10z"/>
<path d="M3115 2120 c-3 -5 -1 -10 4 -10 6 0 11 5 11 10 0 6 -2 10 -4 10 -3 0
-8 -4 -11 -10z"/>
<path d="M3710 2454 c-56 -24 -90 -63 -90 -102 0 -93 56 -192 118 -210 37 -11
44 -10 93 15 49 26 55 33 74 88 11 33 20 67 19 75 -1 8 -2 25 -3 37 -2 34 -55
88 -99 101 -50 15 -69 15 -112 -4z"/>
</g>
</svg>
